<svg xmlns="http://www.w3.org/2000/svg" viewBox="0 0 111.52 117.76"><defs><style>.cls-1{fill:#fff;}</style></defs><title>Asset 1</title><g id="Layer_2" data-name="Layer 2"><g id="BAKGROUND"><path class="cls-1" d="M3.85,1.92A1.93,1.93,0,1,1,1.92,0,1.94,1.94,0,0,1,3.85,1.92Z"/><path class="cls-1" d="M19.23,1.92A1.93,1.93,0,1,1,17.3,0,1.93,1.93,0,0,1,19.23,1.92Z"/><path class="cls-1" d="M34.61,1.92A1.93,1.93,0,1,1,32.69,0,1.93,1.93,0,0,1,34.61,1.92Z"/><path class="cls-1" d="M50,1.92A1.92,1.92,0,1,1,48.07,0,1.93,1.93,0,0,1,50,1.92Z"/><path class="cls-1" d="M65.37,1.92A1.92,1.92,0,1,1,63.45,0,1.93,1.93,0,0,1,65.37,1.92Z"/><path class="cls-1" d="M80.75,1.92A1.92,1.92,0,1,1,78.83,0,1.93,1.93,0,0,1,80.75,1.92Z"/><path class="cls-1" d="M96.14,1.92A1.93,1.93,0,1,1,94.21,0,1.93,1.93,0,0,1,96.14,1.92Z"/><path class="cls-1" d="M111.52,1.92A1.93,1.93,0,1,1,109.6,0,1.93,1.93,0,0,1,111.52,1.92Z"/><path class="cls-1" d="M3.85,16.16a1.93,1.93,0,1,1-1.93-1.92A1.93,1.93,0,0,1,3.85,16.16Z"/><path class="cls-1" d="M19.23,16.16a1.93,1.93,0,1,1-1.93-1.92A1.92,1.92,0,0,1,19.23,16.16Z"/><path class="cls-1" d="M34.61,16.16a1.93,1.93,0,1,1-1.92-1.92A1.92,1.92,0,0,1,34.61,16.16Z"/><path class="cls-1" d="M50,16.16a1.92,1.92,0,1,1-1.92-1.92A1.92,1.92,0,0,1,50,16.16Z"/><path class="cls-1" d="M65.37,16.16a1.92,1.92,0,1,1-1.92-1.92A1.92,1.92,0,0,1,65.37,16.16Z"/><path class="cls-1" d="M80.75,16.16a1.92,1.92,0,1,1-1.92-1.92A1.92,1.92,0,0,1,80.75,16.16Z"/><path class="cls-1" d="M96.14,16.16a1.93,1.93,0,1,1-1.93-1.92A1.92,1.92,0,0,1,96.14,16.16Z"/><path class="cls-1" d="M111.52,16.16a1.93,1.93,0,1,1-1.92-1.92A1.92,1.92,0,0,1,111.52,16.16Z"/><path class="cls-1" d="M3.85,30.4a1.93,1.93,0,1,1-1.93-1.92A1.93,1.93,0,0,1,3.85,30.4Z"/><path class="cls-1" d="M19.23,30.4a1.93,1.93,0,1,1-1.93-1.92A1.92,1.92,0,0,1,19.23,30.4Z"/><path class="cls-1" d="M34.61,30.4a1.93,1.93,0,1,1-1.92-1.92A1.92,1.92,0,0,1,34.61,30.4Z"/><path class="cls-1" d="M50,30.4a1.92,1.92,0,1,1-1.92-1.92A1.92,1.92,0,0,1,50,30.4Z"/><path class="cls-1" d="M65.37,30.4a1.92,1.92,0,1,1-1.92-1.92A1.92,1.92,0,0,1,65.37,30.4Z"/><path class="cls-1" d="M80.75,30.4a1.92,1.92,0,1,1-1.92-1.92A1.92,1.92,0,0,1,80.75,30.4Z"/><path class="cls-1" d="M96.14,30.4a1.93,1.93,0,1,1-1.93-1.92A1.92,1.92,0,0,1,96.14,30.4Z"/><path class="cls-1" d="M111.52,30.4a1.93,1.93,0,1,1-1.92-1.92A1.92,1.92,0,0,1,111.52,30.4Z"/><path class="cls-1" d="M3.85,44.64a1.93,1.93,0,1,1-1.93-1.92A1.93,1.93,0,0,1,3.85,44.64Z"/><path class="cls-1" d="M19.23,44.64a1.93,1.93,0,1,1-1.93-1.92A1.92,1.92,0,0,1,19.23,44.64Z"/><path class="cls-1" d="M34.61,44.64a1.93,1.93,0,1,1-1.92-1.92A1.92,1.92,0,0,1,34.61,44.64Z"/><path class="cls-1" d="M50,44.64a1.92,1.92,0,1,1-1.92-1.92A1.92,1.92,0,0,1,50,44.64Z"/><path class="cls-1" d="M65.37,44.64a1.92,1.92,0,1,1-1.92-1.92A1.92,1.92,0,0,1,65.37,44.64Z"/><path class="cls-1" d="M80.75,44.64a1.92,1.92,0,1,1-1.92-1.92A1.92,1.92,0,0,1,80.75,44.64Z"/><path class="cls-1" d="M96.14,44.64a1.93,1.93,0,1,1-1.93-1.92A1.92,1.92,0,0,1,96.14,44.64Z"/><path class="cls-1" d="M111.52,44.64a1.93,1.93,0,1,1-1.92-1.92A1.92,1.92,0,0,1,111.52,44.64Z"/><path class="cls-1" d="M3.85,58.88A1.93,1.93,0,1,1,1.92,57,1.93,1.93,0,0,1,3.85,58.88Z"/><path class="cls-1" d="M19.23,58.88A1.93,1.93,0,1,1,17.3,57,1.92,1.92,0,0,1,19.23,58.88Z"/><path class="cls-1" d="M34.61,58.88A1.93,1.93,0,1,1,32.69,57,1.92,1.92,0,0,1,34.61,58.88Z"/><path class="cls-1" d="M50,58.88A1.92,1.92,0,1,1,48.07,57,1.92,1.92,0,0,1,50,58.88Z"/><path class="cls-1" d="M65.37,58.88A1.92,1.92,0,1,1,63.45,57,1.92,1.92,0,0,1,65.37,58.88Z"/><path class="cls-1" d="M80.75,58.88A1.92,1.92,0,1,1,78.83,57,1.92,1.92,0,0,1,80.75,58.88Z"/><path class="cls-1" d="M96.14,58.88A1.93,1.93,0,1,1,94.21,57,1.92,1.92,0,0,1,96.14,58.88Z"/><path class="cls-1" d="M111.52,58.88A1.93,1.93,0,1,1,109.6,57,1.92,1.92,0,0,1,111.52,58.88Z"/><path class="cls-1" d="M3.85,73.12a1.93,1.93,0,1,1-1.93-1.93A1.93,1.93,0,0,1,3.85,73.12Z"/><path class="cls-1" d="M19.23,73.12a1.93,1.93,0,1,1-1.93-1.93A1.92,1.92,0,0,1,19.23,73.12Z"/><path class="cls-1" d="M34.61,73.12a1.93,1.93,0,1,1-1.92-1.93A1.92,1.92,0,0,1,34.61,73.12Z"/><path class="cls-1" d="M50,73.12a1.92,1.92,0,1,1-1.92-1.93A1.92,1.92,0,0,1,50,73.12Z"/><path class="cls-1" d="M65.37,73.12a1.92,1.92,0,1,1-1.92-1.93A1.92,1.92,0,0,1,65.37,73.12Z"/><path class="cls-1" d="M80.75,73.12a1.92,1.92,0,1,1-1.92-1.93A1.92,1.92,0,0,1,80.75,73.12Z"/><path class="cls-1" d="M96.14,73.12a1.93,1.93,0,1,1-1.93-1.93A1.92,1.92,0,0,1,96.14,73.12Z"/><path class="cls-1" d="M111.52,73.12a1.93,1.93,0,1,1-1.92-1.93A1.92,1.92,0,0,1,111.52,73.12Z"/><path class="cls-1" d="M3.85,87.36a1.93,1.93,0,1,1-1.93-1.93A1.93,1.93,0,0,1,3.85,87.36Z"/><path class="cls-1" d="M19.23,87.36a1.93,1.93,0,1,1-1.93-1.93A1.92,1.92,0,0,1,19.23,87.36Z"/><path class="cls-1" d="M34.61,87.36a1.93,1.93,0,1,1-1.92-1.93A1.92,1.92,0,0,1,34.61,87.36Z"/><path class="cls-1" d="M50,87.36a1.92,1.92,0,1,1-1.92-1.93A1.92,1.92,0,0,1,50,87.36Z"/><path class="cls-1" d="M65.37,87.36a1.92,1.92,0,1,1-1.92-1.93A1.92,1.92,0,0,1,65.37,87.36Z"/><path class="cls-1" d="M80.75,87.36a1.92,1.92,0,1,1-1.92-1.93A1.92,1.92,0,0,1,80.75,87.36Z"/><path class="cls-1" d="M96.14,87.36a1.93,1.93,0,1,1-1.93-1.93A1.92,1.92,0,0,1,96.14,87.36Z"/><path class="cls-1" d="M111.52,87.36a1.93,1.93,0,1,1-1.92-1.93A1.92,1.92,0,0,1,111.52,87.36Z"/><path class="cls-1" d="M3.85,101.59a1.93,1.93,0,1,1-1.93-1.92A1.93,1.93,0,0,1,3.85,101.59Z"/><path class="cls-1" d="M19.23,101.59a1.93,1.93,0,1,1-1.93-1.92A1.92,1.92,0,0,1,19.23,101.59Z"/><path class="cls-1" d="M34.61,101.59a1.93,1.93,0,1,1-1.92-1.92A1.92,1.92,0,0,1,34.61,101.59Z"/><path class="cls-1" d="M50,101.59a1.92,1.92,0,1,1-1.92-1.92A1.92,1.92,0,0,1,50,101.59Z"/><path class="cls-1" d="M65.37,101.59a1.92,1.92,0,1,1-1.92-1.92A1.92,1.92,0,0,1,65.37,101.59Z"/><path class="cls-1" d="M80.75,101.59a1.92,1.92,0,1,1-1.92-1.92A1.92,1.92,0,0,1,80.75,101.59Z"/><path class="cls-1" d="M96.14,101.59a1.93,1.93,0,1,1-1.93-1.92A1.92,1.92,0,0,1,96.14,101.59Z"/><path class="cls-1" d="M111.52,101.59a1.93,1.93,0,1,1-1.92-1.92A1.92,1.92,0,0,1,111.52,101.59Z"/><path class="cls-1" d="M3.85,115.83a1.93,1.93,0,1,1-1.93-1.92A1.94,1.94,0,0,1,3.85,115.83Z"/><path class="cls-1" d="M19.23,115.83a1.93,1.93,0,1,1-1.93-1.92A1.93,1.93,0,0,1,19.23,115.83Z"/><path class="cls-1" d="M34.61,115.83a1.93,1.93,0,1,1-1.92-1.92A1.93,1.93,0,0,1,34.61,115.83Z"/><path class="cls-1" d="M50,115.83a1.92,1.92,0,1,1-1.92-1.92A1.93,1.93,0,0,1,50,115.83Z"/><path class="cls-1" d="M65.37,115.83a1.92,1.92,0,1,1-1.92-1.92A1.93,1.93,0,0,1,65.37,115.83Z"/><path class="cls-1" d="M80.75,115.83a1.92,1.92,0,1,1-1.92-1.92A1.93,1.93,0,0,1,80.75,115.83Z"/><path class="cls-1" d="M96.14,115.83a1.93,1.93,0,1,1-1.93-1.92A1.93,1.93,0,0,1,96.14,115.83Z"/><path class="cls-1" d="M111.52,115.83a1.93,1.93,0,1,1-1.92-1.92A1.93,1.93,0,0,1,111.52,115.83Z"/></g></g></svg>