

<svg version="1.1" id="android" xmlns="http://www.w3.org/2000/svg" xmlns:xlink="http://www.w3.org/1999/xlink" x="0px" y="0px"
	 width="500px" height="135px" viewBox="0 0 500 135" enable-background="new 0 0 500 135" xml:space="preserve">
<path fill-rule="evenodd" clip-rule="evenodd" fill="#EC1C24" d="M41.5,89.3c7.9,13,22.5,21.7,38.6,21.7c23.9,0,37.1-20.6,37.1-20.6
	l0,0l1.7,5.5l0,0c-11.1,14.4-30.8,23.1-53,23.1c-25.5,0-47.4-12.1-57.5-29.7c-3.8-6.6-5.9-14-5.9-21.7c0-28.4,28.4-51.4,63.5-51.4
	c24.8,0,44.7,10.6,55.2,26l0,0L79.6,67l23.7-36.4l0,0c-6.8-4.3-15.1-8.3-23.7-8.3c-24.3,0-44.4,20.3-44.4,44.6
	C35.2,75.1,37.5,82.7,41.5,89.3L41.5,89.3L41.5,89.3L41.5,89.3L41.5,89.3z M152.8,89.2L152.8,89.2L152.8,89.2L152.8,89.2
	c1.2-8,8.2-14.2,16.5-14.2c8.4,0,15.3,6.2,16.5,14.2c0.1,0.8,0.2,1.7,0.2,2.5c0,9.2-7.5,16.7-16.7,16.7c-9.2,0-16.7-7.5-16.7-16.7
	C152.6,90.9,152.7,90.1,152.8,89.2L152.8,89.2z M214.8,89.2L214.8,89.2L214.8,89.2l-12.4-41.7l0,0c0,0-7.8-21.3-32.5-12.3
	c-24.7,9-30.3,12.3-30.3,12.3l0,0h33.5l7.9,26.6l0,0c-6.1-5.4-15-8.8-25-8.8c-17.5,0-31.9,10.6-33.2,24c-0.1,0.7-0.1,1.3-0.1,2
	c0,14.3,14.9,26,33.3,26c15.4,0,28.3-8.1,32.2-19.2l0,0l5.7,19.2h29.2L214.8,89.2L214.8,89.2z M308,89.2L308,89.2L308,89.2V47.6l0,0
	c-0.2-8.1-6.9-14.6-15-14.6c-7.9,0-19.3,7.5-30.9,13.7c-0.7-7.7-6.5-13.7-14.4-13.7c-8.3,0-32.2,14.5-32.2,14.5l0,0h17.2v41.7v28
	h29.4v-28V52.7l0,0c1.2-3.1,4.2-5.2,7.6-5.2c4.5,0,8.2,3.7,8.2,8.2l0,0v33.5v28h30V89.2L308,89.2z M354.3,89.2L354.3,89.2
	L354.3,89.2l-12.6-41.7l0,0c0.7-5.4,6-10.7,11.7-10.7c5.7,0,10.4,4.3,11,9.8l0,0l12.5,42.6l3.5,12.1l0,0c0,0.4,0.1,0.8,0.1,1.3
	c0,6.1-4.9,11-11,11c-6,0-10.8-4.7-10.9-10.6l0,0L354.3,89.2L354.3,89.2z M402,89.2L402,89.2L402,89.2L402,89.2
	c1.4-4.3,2.2-8.8,2.2-13.5c0-23.9-19.3-43.2-43.2-43.2c-23.9,0-43.2,19.3-43.2,43.2c0,4.7,0.8,9.3,2.2,13.5
	c5.7,17.2,21.9,29.7,41,29.7C380.1,118.9,396.3,106.5,402,89.2L402,89.2z M451.7,89.2L451.7,89.2L451.7,89.2V52.7l0,0
	c1.2-3.1,4.2-5.2,7.6-5.2c4.5,0,8.2,3.7,8.2,8.2l0,0v33.5v28h30v-28V47.6l0,0c-0.2-8.1-6.9-14.6-15-14.6c-7.9,0-19.3,7.5-30.9,13.7
	c-0.7-7.7-6.5-13.7-14.4-13.7c-8.3,0-31.5,14.5-31.5,14.5l0,0h16.5v41.7v28h29.4V89.2L451.7,89.2z"/>
</svg>
