

<svg version="1.1" id="philips" xmlns="http://www.w3.org/2000/svg" xmlns:xlink="http://www.w3.org/1999/xlink" x="0px" y="0px"
	 width="500px" height="135px" viewBox="0 0 500 135" enable-background="new 0 0 500 135" xml:space="preserve">
<path fill="#005E4E" d="M487.2,37.5L495,6.6c-6.6-1-14-1.8-19.9-1.6c-17.4,1.2-31.5,6.8-43.9,26.1L436,7.5h-40.5
	c-1.1,5.8-2.4,11.8-3.9,18C388.4,6.9,360.7,2.3,341,3.4c-45.1,2.4-90.9,29.5-96.1,79.8c-0.4,3.8-0.4,7.4,0.2,10.6
	c0.4,2.6,1,5.1,1.9,7.4c-10.9,2.9-22,4.8-33.3,4.8c-26.1,0-40.9-18-34.1-43.5c5.2-20.3,22.9-30.7,42.3-32.1
	c12.4-1.2,24.7,1.2,33.9,3.8l12.6-24.9c-14.2-3.4-26.9-4.8-40.9-4.8c-34,0.5-69.1,15.3-82.4,44.3c0.3-2.7,0.4-5.4,0.2-8.2
	c-2.4-28-27.8-35.7-61.5-35.7c-18.1,0-37.9,2.6-53.2,7.6l-5.5,25.3c15.8-5.2,31.9-10.8,51.4-10.8c21.5,0,36.9,7.6,30.3,26.3
	C75.7,53.2,3,49,2.5,95.9c0,28.7,26.9,33.5,49.5,33.5c24.3-2,46.3-2.6,73.2-2.6l14-54.6c0.1-0.4,0.2-0.9,0.4-1.3c0,0.2,0,0.4,0,0.7
	c-1.8,38.3,27.7,56.9,68,57.6c13.6,0.4,28.3-1.8,39.7-4.2l4.2-16c11.6,15.7,36.1,21.7,56.5,21.6c23-0.2,39.5-9.2,55.6-25.2
	c0.9-0.9,1.3-3.9,0.3-5.2c-1.3-1.7-3.5-2.4-5.5-0.3c-10.2,11.5-29.1,20.7-44.5,20.4c-18.5-0.6-35.9-9.8-38.5-29.6
	c-0.6-5.6,0.3-13,1.1-20c7-5.4,32-5.3,52.4-5.9c19.4-0.5,47.3-6.1,58.3-21.1c-7,27-15.7,55.8-22.8,83h41.9l14-53.1
	c6.2-23.1,23.9-39.3,47.9-38.9C474.1,34.7,480.9,35.9,487.2,37.5z M62,108.8c-11.4,0-24.9-1.9-24.9-14.9C37,68,85,72,102,72
	C96.5,98.4,91.8,108.8,62,108.8z M327.5,55.4c-15.8,2-40.1,1.6-47.1,5c9.2-25.1,29.7-45.8,61.2-50.4c13.4-1.8,27.7,1.9,28.7,18
	C370.9,43.3,345.6,53.2,327.5,55.4z M489.3,110.7c0-3.8-2.6-5.4-8-5.4h-6.8v19.2h2.6v-8.6h4.8l4.2,8.6h3l-4.4-8.8
	C487.5,115.2,489.3,113.2,489.3,110.7z M480.9,114.2h-3.8v-7.2h3.8c3.8,0,5.8,1,5.8,3.4C486.7,113.4,484.9,114.2,480.9,114.2z
	 M492.7,103.5c-3.2-3.2-7.4-5-11.8-5c-4.6,0-8.6,1.8-11.6,4.8c-3.2,3.4-5,7.6-5,12c0,4.4,1.8,8.4,4.8,11.6c3.2,3.2,7.4,5,11.8,5
	c4.4,0,8.6-1.8,11.8-5c3.2-3.2,4.8-7.2,4.8-11.6C497.5,110.7,495.9,106.5,492.7,103.5z M491.5,125.6c-2.8,2.8-6.8,4.4-10.6,4.4
	c-4,0-7.8-1.6-10.6-4.4c-2.8-2.8-4.4-6.6-4.4-10.4c0-4,1.6-7.8,4.4-10.8c2.8-2.8,6.6-4.4,10.6-4.4c4,0,7.8,1.6,10.6,4.6
	c2.8,2.8,4.4,6.4,4.4,10.6C495.9,119.2,494.3,122.8,491.5,125.6z"/>
</svg>
