

<svg version="1.1" id="bosch" xmlns="http://www.w3.org/2000/svg" xmlns:xlink="http://www.w3.org/1999/xlink" x="0px" y="0px"
	 width="300px" height="135px" viewBox="0 0 300 135" enable-background="new 0 0 300 135" xml:space="preserve">
<g>
	<path fill-rule="evenodd" clip-rule="evenodd" fill="#E72033" d="M97.4,95.3c2.6-0.3,4.3-2.3,4.3-4.6V25.2
		c0-24.3,31.2-36.1,47.8-7.7c16.9,28.9,26.6,45.8,26.6,45.8V25.2c0-24.3,31.2-36.1,47.8-7.7c16.9,28.9,26.6,45.8,26.6,45.8V1.4H288
		v108.5c0,27.9-32.7,32.2-46,10c-7.9-13-28.4-46.8-28.4-46.8v36.8c0.3,27.9-32.5,32.2-46,10c-7.9-13-28.1-46.8-28.1-46.8v33.3
		c0,17.1-10,26.1-25.6,26.1H77.7c-92.4,0-93.1-131-1.3-131h20.5v37.1c0,0-5.6,0-22.5,0c-37.6,0-41.7,56.8,2.6,56.8H97.4L97.4,95.3z"
		/>
	<path fill="#FFFFFF" d="M264.4,115.9c-2.4,0-4.7-1.3-6.4-3.5c-0.5-0.8-43.6-70-54.5-88.1c-1-1.4-2.6-2-4-1.6
		c-1.5,0.5-2.4,2.1-2.4,4.2v80.6c0,3.9-1.9,7-4.9,8c-2.9,1-6.2-0.3-8.3-3.2c-0.5-0.8-43.8-70-54.8-88.1c-1-1.4-2.6-2-4-1.6
		c-1.5,0.5-2.4,2.1-2.4,4.2v80.1c0,4.9-3.8,8.7-8.7,8.7H75.3c-34.9,0-50.8-25.3-50.8-48.8c0-12.8,4.4-24.7,12.5-33.7
		C46,23.3,58.7,18,73.8,18h23.8v4.2H73.8c-13.8,0-25.5,4.8-33.7,14C32.7,44.3,28.6,55.3,28.6,67c0,21.5,14.6,44.6,46.6,44.6h38.6
		c2.6,0,4.6-2,4.6-4.6V27c0-4,2-7.2,5.3-8.2c3.1-1,6.6,0.3,8.7,3.1l0.1,0.1c10.9,17.9,54.3,87.3,54.7,88c1,1.3,2.3,1.9,3.6,1.6
		c1.3-0.4,2.1-1.9,2.1-4V27c0-4,2-7.2,5.3-8.2c3.1-1,6.6,0.3,8.7,3.1l0.1,0.1c10.9,17.9,54,87.3,54.5,88c0.9,1.3,2.4,2,3.7,1.5
		c1.3-0.4,2.1-1.9,2.1-4V1.4h4.2v106.2c0,3.9-1.9,7-5,8C265.8,115.8,265.1,115.9,264.4,115.9z"/>
</g>
</svg>
